<svg width="23" height="23" viewBox="0 0 23 23" fill="none" xmlns="http://www.w3.org/2000/svg">
<path d="M11.3319 5.90002C8.17143 5.90002 5.55273 8.47357 5.55273 11.6792C5.55273 14.8849 8.12628 17.4584 11.3319 17.4584C14.5376 17.4584 17.1111 14.8397 17.1111 11.6792C17.1111 8.51872 14.4924 5.90002 11.3319 5.90002ZM11.3319 15.3815C9.30018 15.3815 7.62963 13.711 7.62963 11.6792C7.62963 9.64747 9.30018 7.97692 11.3319 7.97692C13.3637 7.97692 15.0342 9.64747 15.0342 11.6792C15.0342 13.711 13.3637 15.3815 11.3319 15.3815Z" fill="#FFDD00"/>
<path d="M17.3367 7.07402C18.0598 7.07402 18.646 6.4878 18.646 5.76467C18.646 5.04154 18.0598 4.45532 17.3367 4.45532C16.6136 4.45532 16.0273 5.04154 16.0273 5.76467C16.0273 6.4878 16.6136 7.07402 17.3367 7.07402Z" fill="#FFDD00"/>
<path d="M20.7231 2.37837C19.5492 1.15932 17.8787 0.527222 15.9824 0.527222H6.6815C2.75346 0.527222 0.134766 3.14592 0.134766 7.07396V16.3297C0.134766 18.2711 0.766864 19.9417 2.03106 21.1607C3.25011 22.3346 4.87551 22.9216 6.72665 22.9216H15.9372C17.8787 22.9216 19.5041 22.2895 20.678 21.1607C21.897 19.9868 22.5291 18.3163 22.5291 16.3748V7.07396C22.5291 5.17766 21.897 3.55227 20.7231 2.37837ZM20.5425 16.3748C20.5425 17.7745 20.0459 18.9032 19.2332 19.6708C18.4205 20.4383 17.2917 20.8447 15.9372 20.8447H6.72665C5.37216 20.8447 4.24341 20.4383 3.43071 19.6708C2.61801 18.8581 2.21166 17.7293 2.21166 16.3297V7.07396C2.21166 5.71946 2.61801 4.59071 3.43071 3.77802C4.19826 3.01047 5.37216 2.60412 6.72665 2.60412H16.0275C17.382 2.60412 18.5108 3.01047 19.3235 3.82317C20.091 4.63586 20.5425 5.76461 20.5425 7.07396V16.3748Z" fill="#FFDD00"/>
</svg>
