<svg width="32" height="32" viewBox="0 0 32 32" fill="none" xmlns="http://www.w3.org/2000/svg">
<path d="M15.915 9.4252C11.9644 9.4252 8.69101 12.6421 8.69101 16.6492C8.69101 20.6562 11.9079 23.8732 15.915 23.8732C19.922 23.8732 23.139 20.5998 23.139 16.6492C23.139 12.6986 19.8656 9.4252 15.915 9.4252ZM15.915 21.2771C13.3753 21.2771 11.2871 19.1889 11.2871 16.6492C11.2871 14.1095 13.3753 12.0213 15.915 12.0213C18.4547 12.0213 20.5429 14.1095 20.5429 16.6492C20.5429 19.1889 18.4547 21.2771 15.915 21.2771Z" fill="white"/>
<path d="M23.4212 10.8925C24.3251 10.8925 25.0579 10.1598 25.0579 9.25586C25.0579 8.35194 24.3251 7.61917 23.4212 7.61917C22.5173 7.61917 21.7845 8.35194 21.7845 9.25586C21.7845 10.1598 22.5173 10.8925 23.4212 10.8925Z" fill="white"/>
<path d="M27.654 5.02304C26.1866 3.49923 24.0984 2.70911 21.728 2.70911H10.1019C5.19189 2.70911 1.91852 5.98247 1.91852 10.8925V22.4622C1.91852 24.889 2.70864 26.9772 4.28889 28.501C5.8127 29.9684 7.84444 30.7021 10.1584 30.7021H21.6716C24.0984 30.7021 26.1302 29.9119 27.5975 28.501C29.1213 27.0336 29.9115 24.9454 29.9115 22.5186V10.8925C29.9115 8.52216 29.1213 6.49041 27.654 5.02304ZM27.4282 22.5186C27.4282 24.2682 26.8074 25.6791 25.7915 26.6386C24.7757 27.598 23.3647 28.1059 21.6716 28.1059H10.1584C8.46525 28.1059 7.05432 27.598 6.03845 26.6386C5.02257 25.6227 4.51464 24.2118 4.51464 22.4622V10.8925C4.51464 9.19941 5.02257 7.78847 6.03845 6.7726C6.99788 5.81316 8.46525 5.30523 10.1584 5.30523H21.7845C23.4776 5.30523 24.8885 5.81316 25.9044 6.82904C26.8638 7.84491 27.4282 9.25584 27.4282 10.8925V22.5186Z" fill="white"/>
</svg>
