<svg width="32" height="32" viewBox="0 0 32 32" fill="none" xmlns="http://www.w3.org/2000/svg">
<path d="M28 14.0723C25.6408 14.0778 23.3395 13.3536 21.4211 12.0019V21.429C21.4205 23.175 20.8783 24.8792 19.8671 26.3137C18.856 27.7482 17.424 28.8447 15.7627 29.4564C14.1013 30.0682 12.2899 30.1662 10.5704 29.7372C8.85104 29.3082 7.30566 28.3727 6.14095 27.0559C4.97623 25.739 4.2477 24.1036 4.05277 22.3681C3.85783 20.6327 4.20579 18.8801 5.05011 17.3446C5.89443 15.8091 7.19486 14.5639 8.77753 13.7755C10.3602 12.9871 12.1497 12.6932 13.9066 12.9329V17.6744C13.1026 17.4255 12.2393 17.433 11.4399 17.6958C10.6405 17.9587 9.94589 18.4635 9.45531 19.1381C8.96474 19.8127 8.70326 20.6227 8.70823 21.4523C8.71319 22.2819 8.98434 23.0888 9.48295 23.7576C9.98157 24.4265 10.6821 24.9232 11.4846 25.1768C12.2871 25.4303 13.1505 25.4278 13.9515 25.1696C14.7524 24.9114 15.45 24.4106 15.9446 23.7388C16.4392 23.0671 16.7055 22.2586 16.7055 21.429V3H21.4211C21.4179 3.39199 21.4512 3.78344 21.5208 4.16942C21.6847 5.03104 22.0254 5.8507 22.5221 6.57827C23.0188 7.30583 23.6611 7.926 24.4097 8.40084C25.4747 9.09399 26.7233 9.46344 28 9.46318V14.0723Z" fill="white"/>
</svg>
