<svg width="20" height="23" viewBox="0 0 20 23" fill="none" xmlns="http://www.w3.org/2000/svg">
<path d="M19.4002 9.61783C17.5128 9.62228 15.6718 9.0429 14.1371 7.96155V15.5032C14.1366 16.9 13.7028 18.2634 12.8939 19.411C12.085 20.5586 10.9394 21.4357 9.61032 21.9252C8.28126 22.4146 6.83208 22.4929 5.45655 22.1498C4.08103 21.8066 2.84473 21.0582 1.91295 20.0047C0.981182 18.9512 0.398357 17.6429 0.24241 16.2545C0.0864627 14.8662 0.364827 13.4641 1.04028 12.2357C1.71574 11.0073 2.75608 10.0111 4.02222 9.38041C5.28835 8.74972 6.71992 8.51455 8.1255 8.70635V12.4995C7.4823 12.3004 6.79163 12.3064 6.1521 12.5167C5.51257 12.727 4.95691 13.1308 4.56445 13.6705C4.17199 14.2102 3.96281 14.8581 3.96678 15.5218C3.97075 16.1855 4.18767 16.831 4.58656 17.3661C4.98545 17.9012 5.54591 18.2986 6.18791 18.5014C6.82991 18.7043 7.52061 18.7023 8.16138 18.4957C8.80215 18.2891 9.36021 17.8885 9.75588 17.3511C10.1516 16.8137 10.3646 16.1669 10.3646 15.5032V0.76001H14.1371C14.1345 1.0736 14.1612 1.38677 14.2168 1.69554C14.3479 2.38484 14.6205 3.04057 15.0179 3.62262C15.4153 4.20467 15.9291 4.70081 16.5279 5.08068C17.3799 5.63521 18.3788 5.93077 19.4002 5.93055V9.61783Z" fill="#FFDD00"/>
</svg>
