<svg width="32" height="32" viewBox="0 0 32 32" fill="none" xmlns="http://www.w3.org/2000/svg">
<path d="M28.8 8.06161C27.8582 8.48001 26.8467 8.76241 25.7832 8.88801C26.8675 8.23841 27.7005 7.20961 28.0934 5.98401C27.078 6.58481 25.9545 7.02321 24.7582 7.25761C23.7995 6.23761 22.4344 5.60001 20.9228 5.60001C18.0221 5.60001 15.6719 7.95041 15.6719 10.8504C15.6719 11.2616 15.7175 11.6632 15.8071 12.0472C11.4421 11.828 7.57229 9.73761 4.98124 6.56081C4.52993 7.33681 4.27066 8.23841 4.27066 9.20081C4.27066 11.0232 5.1981 12.6296 6.60645 13.572C5.74623 13.544 4.93643 13.3088 4.22825 12.9152C4.22745 12.9368 4.22745 12.96 4.22745 12.9808C4.22745 15.5256 6.03751 17.648 8.44051 18.1304C8.0004 18.2496 7.53628 18.3144 7.05696 18.3144C6.71768 18.3144 6.38959 18.2816 6.06951 18.2208C6.73688 20.3056 8.67737 21.824 10.9747 21.8672C9.17829 23.2752 6.91373 24.116 4.45311 24.116C4.029 24.116 3.6105 24.0912 3.2 24.0424C5.52378 25.5304 8.28447 26.4 11.2508 26.4C20.9108 26.4 26.1945 18.3992 26.1945 11.46C26.1945 11.2328 26.1881 11.0056 26.1785 10.78C27.2052 10.04 28.095 9.11601 28.8 8.06161Z" fill="white"/>
</svg>
