<svg width="22" height="18" viewBox="0 0 22 18" fill="none" xmlns="http://www.w3.org/2000/svg">
<path d="M21.44 2.80925C20.6865 3.14397 19.8773 3.36989 19.0266 3.47037C19.894 2.95069 20.5604 2.12765 20.8747 1.14717C20.0623 1.62781 19.1636 1.97853 18.2065 2.16605C17.4396 1.35005 16.3475 0.839966 15.1382 0.839966C12.8176 0.839966 10.9375 2.72029 10.9375 5.04029C10.9375 5.36925 10.974 5.69053 11.0457 5.99773C7.55361 5.82237 4.4578 4.15005 2.38496 1.60861C2.02391 2.22941 1.8165 2.95069 1.8165 3.72061C1.8165 5.17853 2.55844 6.46365 3.68512 7.21757C2.99695 7.19517 2.34911 7.00701 1.78257 6.69213C1.78193 6.70941 1.78193 6.72797 1.78193 6.74461C1.78193 8.78045 3.22997 10.4784 5.15237 10.8643C4.80028 10.9596 4.42899 11.0115 4.04553 11.0115C3.7741 11.0115 3.51164 10.9852 3.25557 10.9366C3.78947 12.6044 5.34186 13.8192 7.17976 13.8537C5.7426 14.9801 3.93094 15.6528 1.96245 15.6528C1.62317 15.6528 1.28836 15.6329 0.959961 15.5939C2.81899 16.7843 5.02754 17.48 7.40061 17.48C15.1286 17.48 19.3556 11.0793 19.3556 5.52797C19.3556 5.34621 19.3505 5.16445 19.3428 4.98397C20.1641 4.39197 20.876 3.65277 21.44 2.80925Z" fill="#FFDD00"/>
</svg>
