<svg width="381" height="100" viewBox="0 0 381 100" fill="none" xmlns="http://www.w3.org/2000/svg">
<g clip-path="url(#clip0_15_6120)">
<path d="M376.16 11.8249H373.15V4.50895C373.15 3.23353 372.581 1.99603 371.585 1.11888C370.646 0.289141 369.423 -0.109133 368.214 0.0236253L353.392 1.45552L353.297 1.465C351.932 1.63569 350.723 2.35163 349.96 3.4137C349.86 3.52749 349.765 3.64602 349.68 3.76456C349.58 3.87835 349.485 3.99688 349.395 4.12016C349.296 4.23395 349.201 4.35249 349.111 4.47102C349.011 4.58481 348.912 4.70335 348.826 4.82662C348.727 4.94041 348.627 5.05895 348.542 5.18222C348.442 5.29602 348.348 5.41455 348.257 5.53308C348.158 5.64688 348.058 5.76541 347.973 5.88869C347.873 6.00248 347.779 6.12101 347.688 6.23955C347.589 6.35334 347.489 6.47187 347.404 6.59515C347.304 6.70894 347.21 6.82748 347.119 6.95075C347.02 7.06454 346.92 7.18308 346.835 7.30635C346.735 7.42014 346.636 7.53868 346.551 7.66195C346.451 7.77575 346.356 7.89428 346.266 8.01756C346.166 8.13135 346.072 8.24988 345.982 8.36842C345.882 8.48221 345.787 8.60074 345.697 8.71928C345.593 8.83307 345.498 8.9516 345.408 9.07488C345.308 9.18867 345.213 9.30721 345.123 9.42574C345.019 9.53953 344.924 9.65807 344.834 9.78134C344.735 9.89513 344.64 10.0137 344.55 10.1322C344.45 10.246 344.351 10.3645 344.265 10.4878C344.166 10.6016 344.066 10.7201 343.981 10.8434C343.881 10.9572 343.786 11.0757 343.696 11.199C343.597 11.3128 343.497 11.4313 343.412 11.5546C343.312 11.6684 343.217 11.7869 343.127 11.9055C343.028 12.0193 342.928 12.1378 342.843 12.2611C342.743 12.3749 342.644 12.4934 342.558 12.6167C342.459 12.7305 342.359 12.849 342.269 12.9723C342.169 13.0861 342.075 13.2046 341.985 13.3231C341.885 13.4369 341.79 13.5555 341.7 13.6787C341.601 13.7925 341.506 13.9111 341.416 14.0343C341.397 14.0533 341.378 14.077 341.359 14.096C336.745 11.9292 331.264 10.6395 326.457 10.6395C318.254 10.6395 311.555 13.4132 307.581 18.458C307.482 18.5766 307.387 18.6951 307.292 18.8136C307.197 18.9322 307.102 19.0507 307.008 19.1692C306.913 19.2878 306.818 19.4016 306.723 19.5201C306.624 19.6386 306.529 19.7572 306.439 19.8757C306.344 19.9895 306.249 20.108 306.154 20.2266C306.059 20.3403 305.964 20.4589 305.87 20.5774C305.77 20.6959 305.675 20.8145 305.58 20.9378C305.486 21.0563 305.391 21.1748 305.296 21.2934C305.196 21.4119 305.102 21.5304 305.011 21.649C304.917 21.7628 304.822 21.8813 304.727 21.9998C304.632 22.1184 304.537 22.2369 304.443 22.3554C304.348 22.4692 304.258 22.5783 304.168 22.6921C299.952 14.9589 292.186 10.6395 282.115 10.6395C273.989 10.6395 266.929 13.3895 261.931 18.4391C262.031 18.055 262.083 17.6567 262.083 17.249V4.50895C262.083 2.02922 260.025 0.00940119 257.498 0.00940119H236.935L236.779 0.365003H236.651L236.494 0.720605H236.371L236.214 1.07621H236.082L235.925 1.43181H235.802L235.645 1.78741H235.517L235.361 2.14301H235.233L235.076 2.49861H234.948L234.792 2.85422H234.669L234.512 3.20982H234.379L234.223 3.56542H234.1L233.943 3.92102H233.815L233.659 4.27662H233.531L233.374 4.63223H233.251L233.095 4.98783H232.967L232.81 5.34343H232.687L232.53 5.69903H232.402L232.246 6.05463H232.118L231.961 6.41024H231.833L231.677 6.76584H231.554L231.397 7.12144H231.269L231.113 7.47704H230.989L230.833 7.83264H230.705L230.548 8.18825H230.42L230.264 8.54385H230.141L229.984 8.89945H229.856L229.7 9.25505H229.572L229.415 9.61065H229.292L229.136 9.96626H229.007L228.851 10.3219H228.723L228.567 10.6775H228.443L228.287 11.0331H228.159L228.002 11.3887H227.879L227.723 11.7443H227.595L227.438 12.0999H227.305L227.149 12.4555H227.026L226.874 12.7921C226.371 12.593 225.821 12.4839 225.243 12.4839H208.748C207.14 12.4839 205.566 13.3137 204.613 14.627C204.514 14.7408 204.419 14.8546 204.333 14.9731C204.229 15.0869 204.134 15.2055 204.049 15.3287C203.945 15.4473 203.85 15.5611 203.764 15.6843C203.665 15.7981 203.57 15.9167 203.48 16.0352C203.38 16.149 203.286 16.2675 203.196 16.3861C203.096 16.4998 202.996 16.6184 202.911 16.7417C202.811 16.8554 202.717 16.9692 202.631 17.0925C202.527 17.2111 202.432 17.3296 202.342 17.4529C202.243 17.5667 202.148 17.6852 202.058 17.8085C201.958 17.9223 201.863 18.0408 201.773 18.1593C201.674 18.2731 201.579 18.3916 201.489 18.5149C201.389 18.6287 201.294 18.7473 201.204 18.8705C201.105 18.9843 201.01 19.1029 200.92 19.2214C200.815 19.3399 200.721 19.4585 200.63 19.5817C200.526 19.6955 200.431 19.8141 200.346 19.9373C200.246 20.0511 200.152 20.1697 200.066 20.2882C199.967 20.402 199.867 20.5205 199.782 20.6438C199.682 20.7576 199.587 20.8761 199.497 20.9947C199.398 21.1084 199.303 21.227 199.213 21.3455C199.108 21.4641 199.014 21.5826 198.924 21.7059C198.824 21.8197 198.729 21.9382 198.639 22.0567C198.535 22.1753 198.44 22.2938 198.35 22.4171C198.326 22.4455 198.302 22.474 198.279 22.5024L197.558 16.3813L197.506 16.1774C196.956 13.968 195.083 12.4839 192.845 12.4839H176.018C174.605 12.4839 173.287 13.1667 172.481 14.2762C172.377 14.3899 172.282 14.5085 172.192 14.6365C172.092 14.7455 171.997 14.8641 171.912 14.9826C167.574 12.7115 162.377 11.3128 157.977 11.3128C147.575 11.3128 138.609 15.433 132.753 22.8959C132.658 23.0145 132.564 23.1283 132.469 23.2468L132.436 23.2847C132.345 23.3985 132.255 23.5076 132.175 23.6071C132.085 23.7209 131.99 23.8347 131.9 23.9485C131.805 24.0671 131.71 24.1808 131.615 24.2994C131.511 24.4274 131.411 24.5507 131.326 24.6597C131.231 24.7735 131.136 24.8921 131.056 24.9916L132.028 17.3865C132.184 16.168 131.795 14.9257 130.97 13.9869C130.847 13.8447 130.714 13.7119 130.572 13.5887C130.639 13.5033 130.71 13.418 130.776 13.3326C130.871 13.2188 130.966 13.1003 131.056 12.9865C132.611 11.1658 133.602 8.91841 133.924 6.48136L133.934 6.39601C134.1 5.05895 133.687 3.7124 132.791 2.69775C131.89 1.67362 130.586 1.08569 129.221 1.08569H113.688C112.157 1.08569 110.73 1.83008 109.843 3.05335C109.743 3.16715 109.649 3.28094 109.563 3.39947C109.464 3.51327 109.369 3.6318 109.279 3.75507C109.179 3.86887 109.084 3.9874 108.994 4.11068C108.895 4.22447 108.8 4.343 108.71 4.46628C108.61 4.58007 108.515 4.69861 108.425 4.82188C108.326 4.93567 108.226 5.05421 108.141 5.17748C108.041 5.29127 107.946 5.40981 107.856 5.52834C107.757 5.64214 107.657 5.76067 107.572 5.88394C107.472 5.99774 107.377 6.11627 107.287 6.23955C107.188 6.35334 107.093 6.47187 107.003 6.59515C106.903 6.70894 106.808 6.82748 106.718 6.95075C106.619 7.06454 106.524 7.18308 106.434 7.30635C106.334 7.42014 106.239 7.53868 106.149 7.65721C106.05 7.77101 105.95 7.88954 105.865 8.01281C105.765 8.12661 105.671 8.24514 105.58 8.36842C105.481 8.48221 105.386 8.60074 105.296 8.72402C105.196 8.83781 105.097 8.95635 105.011 9.07962C104.912 9.19341 104.817 9.31195 104.727 9.43048C104.627 9.54427 104.533 9.66281 104.443 9.78608C104.343 9.89988 104.248 10.0184 104.158 10.1417C104.058 10.2555 103.964 10.374 103.874 10.4973C103.774 10.6111 103.679 10.7296 103.589 10.8529C103.489 10.9667 103.39 11.0852 103.305 11.2085C103.205 11.3223 103.11 11.4408 103.02 11.5594C102.921 11.6731 102.826 11.7917 102.736 11.915C102.636 12.0287 102.541 12.1473 102.451 12.2706C102.39 12.3417 102.328 12.4128 102.271 12.4839H90.4176C88.9051 12.4839 87.4684 13.2425 86.5676 14.4895C86.468 14.5986 86.3779 14.7171 86.2926 14.8356C86.193 14.9494 86.0934 15.068 86.0081 15.1912C85.9085 15.305 85.8137 15.4236 85.7236 15.5421C85.6241 15.6559 85.5292 15.7744 85.4391 15.8977C85.3396 16.0115 85.2448 16.13 85.1547 16.2533C85.0551 16.3671 84.9603 16.4856 84.8702 16.6042C84.7706 16.718 84.671 16.8365 84.5857 16.9598C84.4861 17.0736 84.3913 17.1921 84.3012 17.3106C84.2017 17.4244 84.1021 17.5429 84.012 17.6662C83.9124 17.78 83.8176 17.8985 83.7275 18.0171C83.6279 18.1309 83.5284 18.2494 83.443 18.3727C83.3435 18.4865 83.2486 18.605 83.1585 18.7235C83.059 18.8373 82.9594 18.9559 82.8741 19.0791C82.7745 19.1929 82.6797 19.3115 82.5896 19.43C82.5564 19.4679 82.5232 19.5106 82.49 19.5485L82.7555 17.4671C82.9167 16.2011 82.5279 14.9257 81.684 13.9727C80.8448 13.0197 79.6357 12.4744 78.365 12.4744H63.6289C62.9366 12.4744 62.2634 12.6309 61.6517 12.9201L62.5194 6.11153C62.8892 4.91197 62.7375 3.68395 62.0832 2.65982C61.3199 1.465 59.9543 0.753794 58.4324 0.753794H43.6962C42.1505 0.753794 40.7566 1.46026 39.8794 2.6693C39.7799 2.7831 39.6803 2.90163 39.5902 3.02965C39.4906 3.14344 39.3958 3.25723 39.3057 3.38051C39.2061 3.4943 39.1113 3.61283 39.0212 3.73611C38.9217 3.8499 38.8268 3.96369 38.7368 4.08697C38.6372 4.20076 38.5424 4.3193 38.4523 4.44257C38.3527 4.55636 38.2579 4.6749 38.1678 4.79817C38.0682 4.91197 37.9734 5.0305 37.8833 5.15378C37.7837 5.26757 37.6889 5.3861 37.5988 5.50938C37.4993 5.62317 37.4044 5.7417 37.3143 5.86498C37.2148 5.97877 37.1199 6.09256 37.0299 6.21584C36.9303 6.32963 36.8355 6.44817 36.7454 6.57144C36.6458 6.68523 36.5462 6.80377 36.4562 6.92704C36.3566 7.04084 36.2618 7.15463 36.1764 7.2779C36.0769 7.3917 35.9773 7.51023 35.8872 7.63351C35.7876 7.7473 35.6928 7.86109 35.6027 7.98437C35.5031 8.09816 35.4083 8.21669 35.3182 8.33997C35.2187 8.45376 35.1238 8.5723 35.0337 8.69557C34.9342 8.80936 34.8394 8.9279 34.7493 9.05117C34.6497 9.16497 34.5549 9.2835 34.4648 9.40677C34.3652 9.52057 34.2704 9.6391 34.1803 9.75764C34.0807 9.87143 33.9859 9.98996 33.8958 10.1132C33.7963 10.227 33.7014 10.3456 33.6113 10.4688C33.5118 10.5826 33.4169 10.7012 33.3269 10.8244C33.2273 10.9382 33.1325 11.0568 33.0424 11.1753C32.9428 11.2891 32.848 11.4076 32.7579 11.5309C32.6583 11.6447 32.5635 11.7632 32.4734 11.8818C32.3738 11.9956 32.279 12.1141 32.1889 12.2374C32.0894 12.3512 31.9945 12.4697 31.9045 12.593C31.8049 12.7068 31.7101 12.8253 31.62 12.9486C31.5204 13.0624 31.4256 13.1809 31.3355 13.3042C31.2359 13.418 31.1411 13.5365 31.051 13.6598C30.9514 13.7736 30.8566 13.8874 30.7665 14.0106C30.667 14.1244 30.5721 14.243 30.482 14.3662C30.3825 14.48 30.2829 14.5986 30.1928 14.7218C30.0933 14.8356 29.9984 14.9494 29.9083 15.0727C29.8088 15.1865 29.7092 15.305 29.6191 15.4283C29.5196 15.5421 29.4247 15.6559 29.3346 15.7792C29.2351 15.893 29.1402 16.0115 29.0502 16.13C28.9506 16.2438 28.851 16.3623 28.7657 16.4856C28.6661 16.5994 28.5713 16.718 28.4812 16.8412C28.3816 16.955 28.2868 17.0688 28.1967 17.1921C28.0971 17.3059 27.9976 17.4244 27.9122 17.5477C27.8127 17.6615 27.7178 17.78 27.6277 17.8985C27.5282 18.0123 27.4334 18.1309 27.3433 18.2494C27.2437 18.3632 27.1441 18.4817 27.054 18.605C26.9545 18.7188 26.8596 18.8326 26.7696 18.9559C26.67 19.0697 26.5704 19.1882 26.4803 19.3115C26.3808 19.4253 26.2859 19.5391 26.1959 19.6623C26.0963 19.7761 26.0015 19.8947 25.9114 20.0179C25.8118 20.1317 25.717 20.2455 25.6316 20.3688C24.9916 21.08 24.5791 21.9856 24.4558 22.9671L21.9144 42.8902C21.611 43.1273 21.336 43.4071 21.0942 43.7342C20.9898 43.8527 20.8903 43.9713 20.7955 44.104C20.6959 44.2178 20.6011 44.3364 20.511 44.4596C20.4114 44.5734 20.3166 44.6872 20.2265 44.8105C20.1269 44.9243 20.0321 45.0428 19.942 45.1661C19.8424 45.2752 19.7476 45.3937 19.6575 45.517C19.558 45.6308 19.4631 45.7493 19.373 45.8726C19.2735 45.9864 19.1786 46.1049 19.0886 46.2282C18.989 46.342 18.8942 46.4557 18.8041 46.579C18.7045 46.6928 18.6097 46.8114 18.5196 46.9346C18.42 47.0484 18.3252 47.1622 18.2351 47.2855C18.1355 47.3993 18.0407 47.5178 17.9506 47.6411C17.8511 47.7549 17.7562 47.8734 17.6662 47.9967C17.5666 48.1105 17.4718 48.229 17.3817 48.3523C17.2821 48.4613 17.1873 48.5799 17.0972 48.7032C16.9976 48.8169 16.8981 48.9355 16.808 49.0588C16.7084 49.1726 16.6136 49.2863 16.5235 49.4096C16.4239 49.5234 16.3291 49.6419 16.239 49.7652C16.1394 49.879 16.0446 49.9975 15.9545 50.1208C15.855 50.2346 15.7601 50.3484 15.67 50.4717C15.5705 50.5855 15.4756 50.6993 15.3856 50.8273C15.286 50.9411 15.1912 51.0596 15.1011 51.1829C15.0015 51.2967 14.9067 51.4105 14.8166 51.5385C14.717 51.6523 14.6222 51.7708 14.5321 51.8941C14.4325 52.0079 14.3377 52.1264 14.2476 52.2497C14.1481 52.3587 14.0532 52.4773 13.9632 52.6006C13.8636 52.7143 13.7688 52.8329 13.6787 52.9562C13.5791 53.0652 13.4843 53.1837 13.3942 53.307C13.2946 53.4208 13.1998 53.5393 13.105 53.6626C13.0054 53.7764 12.9106 53.8949 12.8205 54.0182C12.7209 54.132 12.6261 54.2458 12.536 54.3738C12.4364 54.4876 12.3416 54.6061 12.2515 54.7294C12.152 54.8432 12.0571 54.957 11.967 55.0803C11.8675 55.1941 11.7726 55.3126 11.6826 55.4359C11.583 55.5497 11.4834 55.6682 11.3933 55.7915C11.2938 55.9053 11.1989 56.0191 11.1089 56.1423C11.0093 56.2561 10.9145 56.3747 10.8244 56.498C10.7248 56.6117 10.63 56.7303 10.5399 56.8535C10.4403 56.9626 10.3455 57.0811 10.2554 57.2044C10.1558 57.3182 10.061 57.4367 9.97093 57.56C9.87136 57.6738 9.77179 57.7923 9.6817 57.9156C9.58214 58.0294 9.48731 58.1432 9.39722 58.2665C9.29765 58.3803 9.20283 58.4988 9.11274 58.6221C9.01317 58.7359 8.91835 58.8544 8.82826 58.9777C8.72869 59.0867 8.63386 59.2053 8.54378 59.3285C8.44421 59.4423 8.34938 59.5609 8.2593 59.6841C8.15973 59.7979 8.0649 59.9165 7.97007 60.0397C7.8705 60.1535 7.77568 60.2673 7.68559 60.3906C7.58602 60.5044 7.4912 60.6229 7.40111 60.7462C7.30154 60.8553 7.20671 60.9738 7.11663 61.0971C7.0218 61.2014 6.93172 61.3152 6.84637 61.429C6.54292 61.7609 6.29163 62.1354 6.09249 62.5574L0.436053 73.9698L0.35545 74.15C-0.398426 75.9707 0.061486 77.9621 1.55027 79.356C4.85974 82.4379 11.0235 84.434 17.2584 84.434C26.12 84.434 33.2557 81.2763 37.8975 75.2974L37.926 75.2595C38.0113 75.1552 38.0967 75.0461 38.182 74.9418L38.2247 74.8849C38.3053 74.7854 38.3859 74.6858 38.4665 74.5862L38.5139 74.5293C38.5945 74.4298 38.6704 74.3349 38.751 74.2354L38.7984 74.1785C38.879 74.0789 38.9549 73.9841 39.0355 73.8845L39.0592 73.8561C39.1493 73.747 39.2346 73.6427 39.3199 73.5289L39.3674 73.472C39.448 73.3724 39.5286 73.2729 39.6044 73.1733L39.6376 73.1354C39.723 73.0311 39.8083 72.9268 39.8936 72.8177L39.9221 72.7845C40.0074 72.6802 40.0928 72.5712 40.1781 72.4668L40.2303 72.4052C40.3109 72.3104 40.3867 72.2156 40.4626 72.116L40.5053 72.0638C40.5859 71.9643 40.6712 71.86 40.7518 71.7604L40.7992 71.7035C40.8798 71.6039 40.9557 71.5091 41.0363 71.4095L41.0553 71.3858C41.7096 74.2543 42.9423 76.7436 44.7251 78.7729C47.9871 82.4806 52.9371 84.4388 59.0345 84.4388C63.4013 84.4388 67.7776 83.206 71.4379 81.0297C72.3767 82.5896 73.8892 83.1823 75.1836 83.1823H84.6426C86.1456 83.1823 87.6107 82.4095 88.5068 81.172C88.5447 81.1293 88.5779 81.0914 88.6159 81.0487C88.7533 81.2715 88.9098 81.4849 89.0852 81.684C89.9245 82.6371 91.1335 83.1823 92.4042 83.1823H107.14C108.653 83.1823 110.089 82.4237 110.99 81.1767C111.09 81.0629 111.18 80.9491 111.27 80.8306C111.37 80.7168 111.464 80.5983 111.555 80.475C111.654 80.3612 111.754 80.2427 111.839 80.1194C111.939 80.0056 112.033 79.8871 112.124 79.7685C112.223 79.6547 112.323 79.5362 112.408 79.4129C112.508 79.2991 112.602 79.1806 112.692 79.0621C112.792 78.9483 112.892 78.8298 112.977 78.7065C113.077 78.5927 113.176 78.4741 113.266 78.3509C113.366 78.2371 113.461 78.1185 113.546 78C113.645 77.8862 113.745 77.7677 113.83 77.6444C113.93 77.5306 114.03 77.4121 114.115 77.2888C114.214 77.175 114.309 77.0565 114.399 76.938C114.499 76.8242 114.599 76.7056 114.684 76.5823C114.783 76.4686 114.878 76.35 114.968 76.2315C115.068 76.1177 115.163 75.9992 115.253 75.8759C115.352 75.7621 115.447 75.6436 115.537 75.5203C115.637 75.4065 115.732 75.2879 115.822 75.1647C115.845 75.1362 115.869 75.1078 115.893 75.0793C120.336 81.1388 127.817 84.5194 137.158 84.5194C142.506 84.5194 149.481 82.4711 154.924 79.2944L155.246 79.081C155.687 78.7491 156.081 78.3509 156.398 77.9194C156.498 77.8056 156.593 77.6871 156.683 77.5638C156.782 77.45 156.877 77.3315 156.967 77.2129C157.067 77.0992 157.166 76.9806 157.252 76.8573C157.351 76.7436 157.446 76.625 157.536 76.5017C157.636 76.3879 157.731 76.2694 157.821 76.1509C157.92 76.0323 158.02 75.9138 158.11 75.7953C158.21 75.6815 158.304 75.563 158.394 75.4444C158.494 75.3306 158.594 75.2121 158.679 75.0888C158.778 74.975 158.873 74.8565 158.963 74.7332C159.063 74.6194 159.158 74.5009 159.248 74.3824C159.347 74.2686 159.442 74.15 159.532 74.0268C159.632 73.913 159.732 73.7944 159.817 73.6712C159.916 73.5574 160.011 73.4388 160.101 73.3203C160.201 73.2065 160.3 73.088 160.386 72.9647C160.485 72.8509 160.58 72.7324 160.67 72.6091C160.77 72.4953 160.865 72.3768 160.955 72.2582C161.054 72.1444 161.154 72.0212 161.244 71.9026C161.344 71.7888 161.438 71.6703 161.524 71.5518C161.623 71.438 161.723 71.3147 161.813 71.1962C161.913 71.0824 162.007 70.9638 162.097 70.8406C162.197 70.7268 162.292 70.6082 162.382 70.485C162.481 70.3712 162.576 70.2526 162.666 70.1294C162.766 70.0156 162.861 69.897 162.951 69.7738C163.05 69.66 163.145 69.5414 163.235 69.4229C163.335 69.3091 163.434 69.1906 163.52 69.0673C163.619 68.9535 163.714 68.835 163.804 68.7117C163.814 68.7022 163.823 68.6927 163.833 68.6785L164.141 70.2052C164.141 70.2052 164.108 70.2479 164.094 70.2669C163.994 70.3806 163.899 70.4992 163.809 70.6225C163.709 70.7362 163.615 70.85 163.525 70.9733C163.425 71.0871 163.33 71.2056 163.24 71.3289C163.141 71.4427 163.046 71.5612 162.956 71.6845C162.856 71.7983 162.761 71.9168 162.671 72.0401C162.572 72.1539 162.477 72.2725 162.387 72.3957C162.287 72.5095 162.192 72.6281 162.102 72.7513C162.003 72.8604 161.908 72.9789 161.818 73.1022C161.718 73.216 161.623 73.3345 161.533 73.4578C161.434 73.5716 161.339 73.6854 161.249 73.8086C161.149 73.9224 161.054 74.041 160.964 74.1643C160.865 74.278 160.77 74.3966 160.68 74.5199C160.58 74.6336 160.485 74.7474 160.395 74.8707C160.296 74.9845 160.201 75.103 160.111 75.2263C160.011 75.3401 159.916 75.4539 159.826 75.5819C159.727 75.6957 159.632 75.8142 159.542 75.9375C159.442 76.0513 159.347 76.1698 159.257 76.2931C159.158 76.4069 159.063 76.5255 158.973 76.6487C158.873 76.7625 158.778 76.8811 158.688 77.0043C158.589 77.1181 158.494 77.2367 158.404 77.3599C158.304 77.469 158.21 77.5875 158.124 77.7108C158.025 77.8246 157.93 77.9431 157.84 78.0664C157.74 78.1802 157.645 78.2987 157.555 78.422C157.46 78.531 157.366 78.6448 157.275 78.7681C157.053 79.0147 156.858 79.2897 156.683 79.5836L150.609 89.3319L150.486 89.7112C149.955 91.3327 150.291 93.1107 151.372 94.353L151.41 94.3956C154.492 97.8047 160.817 100.009 167.526 100.009C176.857 100.009 183.666 96.9512 188.948 90.3844C189.028 90.2896 189.104 90.19 189.18 90.0952L189.237 90.0194C189.318 89.9245 189.393 89.825 189.469 89.7301L189.521 89.6685C189.597 89.5784 189.673 89.4836 189.749 89.3888L189.806 89.3176C189.882 89.2275 189.953 89.1375 190.024 89.0474L190.071 88.9857C190.147 88.8909 190.228 88.7961 190.304 88.6965L190.375 88.6064C190.446 88.5211 190.517 88.431 190.588 88.3409L190.659 88.2508C190.735 88.156 190.811 88.0612 190.892 87.9663L190.944 87.9C191.02 87.8051 191.1 87.7103 191.176 87.6107L191.228 87.5444C191.299 87.459 191.371 87.3689 191.442 87.2788L191.513 87.1935C191.589 87.1034 191.665 87.0086 191.74 86.9138L191.802 86.8379C191.878 86.7431 191.954 86.6482 192.034 86.5534L192.087 86.487C192.162 86.397 192.234 86.3069 192.305 86.2168L192.371 86.1362C192.447 86.0414 192.523 85.9465 192.599 85.8517L192.655 85.7806C192.727 85.6952 192.798 85.6051 192.869 85.5151L192.935 85.4297C193.011 85.3396 193.087 85.2448 193.163 85.15L193.224 85.0741C193.3 84.9793 193.376 84.8845 193.457 84.7896L193.509 84.7233C193.575 84.6427 193.646 84.5573 193.713 84.472L193.779 84.3866C193.869 84.2823 193.955 84.1685 194.04 84.0595L194.073 84.0168C194.149 83.9267 194.22 83.8366 194.291 83.7465L194.358 83.6659C194.424 83.5853 194.49 83.5 194.557 83.4194L194.623 83.334C194.699 83.2392 194.775 83.1444 194.851 83.0496L194.927 82.9547C194.998 82.8694 195.069 82.7793 195.14 82.694L195.197 82.6228C195.273 82.528 195.353 82.4332 195.429 82.3336L195.5 82.2483C195.576 82.1582 195.652 82.0634 195.728 81.9685L195.785 81.8927C195.861 81.8026 195.932 81.7125 196.003 81.6224L196.069 81.5418C196.136 81.4612 196.207 81.3759 196.273 81.2905L196.34 81.2099C196.42 81.1103 196.505 81.006 196.586 80.9065L196.643 80.8306C196.714 80.7453 196.785 80.6552 196.856 80.5698L196.927 80.4845C197.003 80.3897 197.079 80.2948 197.155 80.2L197.212 80.1289C197.288 80.034 197.368 79.9392 197.444 79.8397L197.496 79.7733C197.563 79.6927 197.634 79.6073 197.7 79.522L197.762 79.4414C197.843 79.3418 197.928 79.2375 198.008 79.1379L198.065 79.0668C198.137 78.9815 198.208 78.8914 198.279 78.8013L198.35 78.716C198.426 78.6211 198.502 78.5263 198.577 78.4315L198.634 78.3604C198.71 78.2703 198.781 78.1802 198.852 78.0901L198.919 78.0095C198.995 77.9194 199.071 77.8246 199.146 77.7298L199.203 77.6586C199.279 77.5638 199.36 77.469 199.436 77.3694L199.488 77.303C199.559 77.2177 199.63 77.1276 199.701 77.0375L199.772 76.9474C199.843 76.8621 199.915 76.772 199.986 76.6867L200.043 76.6155C200.118 76.5207 200.199 76.4259 200.275 76.3311L200.346 76.241C200.422 76.1509 200.498 76.0561 200.569 75.9612L200.63 75.8854C200.687 75.8142 200.744 75.7431 200.801 75.6767V78.3935C200.801 80.878 202.864 82.9784 205.301 82.9784H220.236C221.72 82.9784 223.105 82.253 223.967 81.0534C224.067 80.9397 224.157 80.8259 224.247 80.7073C224.347 80.5935 224.446 80.475 224.532 80.3517C224.631 80.2379 224.726 80.1194 224.816 79.9961C224.916 79.8823 225.015 79.7638 225.101 79.6405C225.2 79.5267 225.295 79.4082 225.385 79.2897C225.485 79.1759 225.579 79.0573 225.67 78.9341C225.769 78.8203 225.864 78.7017 225.954 78.5785C226.054 78.4647 226.153 78.3461 226.239 78.2229C226.338 78.1091 226.433 77.9905 226.523 77.872C226.623 77.7582 226.717 77.6397 226.807 77.5164C226.907 77.4026 227.002 77.2841 227.092 77.1655C227.192 77.0517 227.286 76.9332 227.376 76.8099C227.476 76.6961 227.576 76.5776 227.661 76.4543C227.761 76.3405 227.855 76.2267 227.945 76.1035C228.045 75.9897 228.145 75.8711 228.235 75.7479C228.334 75.6341 228.429 75.5203 228.519 75.397C228.619 75.2832 228.714 75.1647 228.804 75.0414C228.903 74.9276 228.998 74.8091 229.088 74.6858C229.188 74.572 229.287 74.4535 229.373 74.3302C229.472 74.2164 229.567 74.0979 229.657 73.9793C229.757 73.8655 229.856 73.747 229.946 73.6237C230.046 73.5099 230.141 73.3914 230.231 73.2729C230.33 73.1591 230.425 73.0406 230.515 72.922C230.615 72.8082 230.714 72.6897 230.804 72.5664C230.904 72.4526 230.999 72.3341 231.089 72.2156C231.189 72.1018 231.283 71.9832 231.373 71.8599C231.473 71.7462 231.573 71.6276 231.663 71.5043C231.762 71.3906 231.857 71.2768 231.947 71.1535C232.047 71.0397 232.146 70.9212 232.232 70.7979C232.331 70.6841 232.426 70.5656 232.516 70.4423C232.616 70.3285 232.71 70.21 232.801 70.0867C232.9 69.9729 233 69.8544 233.085 69.7311C233.185 69.6173 233.279 69.4988 233.37 69.3802C233.469 69.2664 233.564 69.1479 233.654 69.0246C233.754 68.9108 233.853 68.7923 233.939 68.669C234.038 68.5552 234.133 68.4367 234.223 68.3182C234.323 68.2044 234.417 68.0858 234.507 67.9626C234.607 67.8488 234.702 67.7302 234.792 67.6069C234.892 67.4932 234.986 67.3746 235.076 67.2514C235.176 67.1376 235.271 67.019 235.361 66.8957C235.46 66.782 235.56 66.6634 235.65 66.5401C235.75 66.4264 235.845 66.3078 235.935 66.1893C236.034 66.0755 236.134 65.957 236.219 65.8337C236.319 65.7199 236.413 65.6014 236.504 65.4828C236.603 65.369 236.698 65.2505 236.788 65.1272C236.888 65.0134 236.987 64.8949 237.077 64.7716C237.177 64.6578 237.272 64.544 237.362 64.4208C237.461 64.307 237.561 64.1884 237.646 64.0652C237.746 63.9514 237.841 63.8328 237.931 63.7096C238.03 63.5958 238.125 63.482 238.21 63.3587C238.813 62.6854 239.197 61.8652 239.315 61.0022C239.552 60.8695 239.78 60.713 239.993 60.5423C240.747 66.91 243.341 72.4005 247.603 76.5776C252.719 81.594 259.765 84.2444 267.977 84.2444C275.022 84.2444 282.201 82.2909 287.198 79.0194C287.8 78.6591 288.284 78.2229 288.649 77.7155C288.749 77.6017 288.843 77.4832 288.934 77.3647C289.033 77.2509 289.133 77.1323 289.218 77.0091C289.322 76.8953 289.417 76.7767 289.503 76.6535C289.602 76.5397 289.702 76.4211 289.787 76.2979C289.834 76.2457 289.877 76.1936 289.92 76.1414C290.109 76.8716 290.527 77.6634 291.318 78.4599L291.603 78.7397L291.944 78.9483C297.24 82.1629 304.608 84.2396 310.715 84.2396C318.695 84.2396 325.229 81.4944 329.117 76.5017C329.216 76.3832 329.311 76.2647 329.401 76.1461C329.496 76.0323 329.591 75.9138 329.686 75.7953C329.785 75.6767 329.88 75.5582 329.975 75.4397C330.074 75.3211 330.169 75.2026 330.264 75.0841C330.359 74.9655 330.454 74.8517 330.544 74.7332C330.643 74.6147 330.738 74.4961 330.828 74.3776C330.923 74.2591 331.018 74.1453 331.113 74.0268C331.207 73.9082 331.307 73.7897 331.397 73.6712C331.497 73.5526 331.592 73.4341 331.686 73.3156C331.781 73.197 331.881 73.0785 331.971 72.9599C332.066 72.8414 332.16 72.7276 332.255 72.6091C332.35 72.4905 332.45 72.372 332.54 72.2535C332.635 72.1349 332.734 72.0164 332.824 71.8979C332.919 71.7794 333.014 71.6608 333.109 71.5423C333.208 71.4237 333.303 71.3052 333.398 71.1867C333.493 71.0681 333.588 70.9543 333.682 70.8358C333.777 70.7173 333.872 70.6035 333.967 70.4802C334.062 70.3617 334.157 70.2479 334.251 70.1294C334.351 70.0108 334.446 69.8923 334.541 69.7738L334.579 69.7263V78.3888C334.579 80.9159 336.636 82.9737 339.163 82.9737H354.018C355.483 82.9737 356.858 82.253 357.721 81.0677C357.821 80.9539 357.916 80.8353 358.006 80.7121C358.105 80.5983 358.2 80.4797 358.29 80.3612C358.39 80.2474 358.489 80.1289 358.575 80.0056C358.674 79.8918 358.769 79.7733 358.859 79.6547C358.959 79.541 359.053 79.4224 359.144 79.2991C359.243 79.1853 359.338 79.0668 359.428 78.9435C359.528 78.8298 359.622 78.7112 359.713 78.5879C359.812 78.4741 359.912 78.3556 360.002 78.2323C360.101 78.1185 360.196 78 360.286 77.8815C360.386 77.7677 360.481 77.6491 360.571 77.5259C360.67 77.4121 360.765 77.2935 360.855 77.1703C360.955 77.0565 361.05 76.9379 361.14 76.8147C361.239 76.7009 361.334 76.5823 361.424 76.4591C361.524 76.3453 361.623 76.2267 361.713 76.1035C361.813 75.9897 361.908 75.8711 361.998 75.7526C362.097 75.6388 362.192 75.5203 362.282 75.397C362.382 75.2832 362.477 75.1647 362.567 75.0414C362.666 74.9276 362.761 74.8091 362.851 74.6905C362.951 74.5768 363.046 74.4582 363.136 74.3349C363.235 74.2211 363.33 74.1026 363.42 73.9793C363.52 73.8655 363.615 73.747 363.705 73.6237C363.804 73.5099 363.899 73.3914 363.989 73.2681C364.089 73.1543 364.184 73.0358 364.274 72.9125C364.373 72.7987 364.468 72.6802 364.558 72.5617C364.658 72.4479 364.753 72.3293 364.843 72.2061C364.942 72.0923 365.037 71.9737 365.127 71.8505C365.227 71.7367 365.322 71.6181 365.412 71.4949C365.511 71.3811 365.606 71.2625 365.696 71.1393C365.796 71.0255 365.891 70.9069 365.981 70.7837C366.08 70.6699 366.175 70.5513 366.265 70.4281C366.365 70.3143 366.46 70.1957 366.55 70.0772C366.649 69.9634 366.749 69.8449 366.839 69.7216C366.938 69.6078 367.033 69.4893 367.123 69.366C367.223 69.2522 367.318 69.1337 367.408 69.0104C367.507 68.8966 367.602 68.7781 367.692 68.6595C367.792 68.5457 367.891 68.4272 367.981 68.3039C368.081 68.1901 368.176 68.0716 368.266 67.9531C368.366 67.8393 368.46 67.7207 368.55 67.5975C368.65 67.4837 368.75 67.3651 368.835 67.2419C368.934 67.1281 369.029 67.0095 369.119 66.891C369.219 66.7772 369.319 66.6587 369.404 66.5354C369.503 66.4216 369.598 66.3031 369.688 66.1845C369.788 66.0707 369.883 65.9522 369.973 65.8289C370.072 65.7151 370.167 65.5966 370.257 65.4733C370.357 65.3595 370.456 65.241 370.542 65.1177C370.641 65.0039 370.736 64.8854 370.826 64.7669C370.926 64.6531 371.025 64.5346 371.111 64.4113C371.21 64.2975 371.305 64.1789 371.395 64.0604C371.495 63.9466 371.59 63.8281 371.68 63.7048C371.779 63.591 371.874 63.4772 371.959 63.354C372.709 62.5147 373.131 61.4337 373.131 60.3195V34.3605C373.131 34.3605 373.154 34.3274 373.168 34.3084C373.268 34.1946 373.363 34.0761 373.453 33.9575C373.553 33.8437 373.647 33.7252 373.737 33.6019C373.837 33.4881 373.932 33.3696 374.022 33.2463C374.121 33.1325 374.216 33.014 374.306 32.8907C374.406 32.7769 374.501 32.6584 374.591 32.5351C374.69 32.4213 374.785 32.3028 374.875 32.1795C374.975 32.0657 375.07 31.9472 375.16 31.8239C375.259 31.7101 375.354 31.5963 375.444 31.4731C375.544 31.3593 375.639 31.2407 375.729 31.1175C375.828 31.0037 375.923 30.8851 376.013 30.7619C376.113 30.6481 376.208 30.5295 376.298 30.4062C376.397 30.2925 376.492 30.1787 376.582 30.0554C376.682 29.9416 376.781 29.8231 376.867 29.6998C376.966 29.586 377.061 29.4722 377.151 29.3489C377.251 29.2351 377.35 29.1166 377.44 28.9933C377.54 28.8795 377.635 28.761 377.725 28.6377C377.824 28.5239 377.924 28.4054 378.014 28.2821C378.114 28.1683 378.209 28.0498 378.299 27.9313C378.398 27.8175 378.493 27.7037 378.583 27.5804C379.233 26.8502 379.655 25.9257 379.778 24.9063L380.707 16.7179L380.726 16.3434C380.726 13.821 378.711 11.8438 376.141 11.8438L376.16 11.8249Z" fill="#181818"/>
<path d="M58.3377 4.03003H43.6015C42.8477 4.03003 42.2835 4.53261 42.1839 5.28649L37.4852 42.1221C36.7218 45.4695 34.3512 47.6458 31.1697 47.6458C28.5762 47.6458 26.5896 46.8066 25.1577 45.5549C24.6266 45.1376 23.8728 45.1376 23.5266 45.8915L17.9603 57.3608C17.7185 57.9488 17.9034 58.4513 18.3538 58.8686C21.0469 61.3815 26.4426 63.0552 31.8003 63.0552C44.3602 63.0552 52.7192 55.9384 54.2554 43.8859L59.1817 5.29123C59.5278 4.53735 59.0916 4.03477 58.3377 4.03477V4.03003Z" fill="white"/>
<path d="M105.064 15.7507H90.3275C89.659 15.7507 88.9952 16.3387 88.9099 17.0072L85.3728 44.7157C85.3728 44.7157 83.187 47.3946 79.925 47.3946C77.2461 47.3946 75.7336 45.4696 76.0987 42.6248L79.3702 17.0072C79.4556 16.3387 78.9435 15.7507 78.275 15.7507H63.5388C62.8703 15.7507 62.2065 16.3387 62.1212 17.0072L58.5841 44.7157C57.1333 56.0997 62.6901 63.0505 73.5763 63.0505C79.0194 63.0505 84.2349 60.8742 87.6771 57.5268L88.5495 60.5424C88.7155 61.2109 89.0568 61.7988 89.7301 61.7988H99.1891C99.8576 61.7988 100.521 61.2109 100.593 60.6277L106.159 17.0119C106.244 16.3434 105.732 15.7555 105.064 15.7555V15.7507Z" fill="white"/>
<path d="M127.557 15.7507H112.82C112.152 15.7507 111.488 16.3387 111.417 16.9218L105.851 60.5376C105.765 61.2061 106.277 61.7941 106.946 61.7941H121.682C122.351 61.7941 123.014 61.2061 123.1 60.5376L128.666 16.9218C128.742 16.3339 128.23 15.7507 127.561 15.7507H127.557Z" fill="white"/>
<path d="M164.933 46.726C164.682 46.0575 164.132 45.8062 163.491 46.2235C161.206 47.7312 157.897 48.7364 155.132 48.7364C149.021 48.7364 145.503 44.801 146.261 38.8601C147.02 32.9145 151.539 28.9839 157.65 28.9839C160.414 28.9839 163.468 29.989 165.364 31.4968C165.895 31.914 166.516 31.6627 166.934 30.9942L173.093 20.7813C173.396 20.3641 173.221 19.7762 172.77 19.3589C168.612 16.5141 162.662 14.5891 157.892 14.5891C142.739 14.5891 131.454 24.2994 129.596 38.8649C127.737 53.4303 136.542 63.1406 151.695 63.1406C156.465 63.1406 162.908 61.2156 167.792 58.3708C168.347 57.9536 168.674 57.3657 168.475 56.9484L164.923 46.7355L164.933 46.726Z" fill="white"/>
<path d="M225.172 15.7507H208.677C208.089 15.7507 207.283 16.1679 207.022 16.9218L197.302 43.2079L194.211 16.9218C194.045 16.2533 193.523 15.7507 192.77 15.7507H175.942C175.274 15.7507 174.781 16.3386 174.956 16.9218L183.22 57.7734C183.31 58.3613 183.742 58.9445 184.576 58.9445H191.442C189.65 63.7996 187.227 65.7246 182.96 65.7246C180.532 65.7246 177.659 64.6341 175.141 62.7091C174.838 62.4578 174.397 62.6238 174.074 63.2117L168.181 72.6707C168.043 73.088 168.053 73.6759 168.418 74.0931C170.841 76.772 176.298 78.6116 182.073 78.6116C192.788 78.6116 200.285 74.3444 205.903 61.7845L225.945 16.9123C226.187 16.3244 225.926 15.7412 225.172 15.7412V15.7507Z" fill="white"/>
<path d="M257.494 3.32837H239.078L219.06 48.1484C218.932 48.4329 218.804 48.7127 218.671 48.9877V60.2911C218.671 60.8837 219.179 61.557 219.852 61.557H234.787C235.461 61.557 236.053 60.9643 236.053 60.3764V40.2067H251.496C252.254 40.2067 252.847 39.614 252.932 39.1114L254.113 27.2959C254.198 26.7886 253.776 26.2007 253.018 26.2007H236.053V18.5197H257.489C258.248 18.5197 258.755 18.0124 258.755 17.2537V4.50897C258.755 3.9163 258.248 3.32837 257.489 3.32837H257.494Z" fill="white"/>
<path d="M282.111 13.9585C267.427 13.9585 257.636 23.7494 257.636 38.4334C257.636 53.1174 267.593 62.8229 282.533 62.8229C289.033 62.8229 295.529 61.0497 300 58.0958C300.592 57.7592 300.758 57.4225 300.592 56.8299L296.965 46.3657C296.795 45.773 296.292 45.4364 295.699 45.6924C291.902 47.4657 287.089 48.4756 282.789 48.4756C275.7 48.4756 275.7 43.1605 275.7 43.1605H302.792C303.551 43.1605 303.973 42.8239 304.058 42.1459C304.31 40.8799 304.395 39.614 304.395 38.348C304.395 22.986 296.126 13.9585 282.115 13.9585H282.111ZM275.61 34.2989C275.61 30.5864 278.142 28.1399 281.94 28.1399C285.316 28.1399 287.596 30.5864 287.596 34.2989H275.61Z" fill="white"/>
<path d="M325.437 28.8133C325.437 27.462 326.618 26.6181 328.391 26.7888C331.26 26.7888 334.806 28.14 338.097 30.2499C338.519 30.5012 339.026 30.4206 339.192 29.9133L343.497 19.9565C343.668 19.5345 343.412 19.1125 342.99 18.7759C338.519 15.9073 331.933 13.9634 326.447 13.9634C314.968 13.9634 307.292 20.0418 307.292 29.0693C307.292 44.9339 325.774 43.5874 325.774 47.8878C325.774 49.1537 324.593 50.1684 322.82 49.9977C319.951 49.9977 316.405 48.4805 313.114 46.5365C312.692 46.2852 312.185 46.3658 312.019 46.8731L307.714 56.6641C307.543 57.1714 307.799 57.5934 308.221 58.0153C312.948 60.8839 319.781 62.8278 325.271 62.8278C336.494 62.8278 343.924 56.7494 343.924 47.7219C343.924 31.6866 325.442 33.2892 325.442 28.8181L325.437 28.8133Z" fill="white"/>
<path d="M376.161 15.1439H369.831V4.509C369.831 3.91633 369.238 3.24306 368.565 3.3284L353.71 4.76503C353.037 4.85038 352.444 5.3577 352.444 5.94563V15.1439H347.632C347.039 15.1439 346.451 15.6512 346.451 16.4098V24.5981C346.451 25.2714 347.044 25.7787 347.632 25.7787H352.444V60.2958C352.444 60.9691 353.037 61.5618 353.71 61.5618H368.565C369.238 61.5618 369.831 60.9691 369.831 60.2958V25.774H375.231C375.904 25.774 376.412 25.1813 376.497 24.5081L377.426 16.3197C377.426 15.6465 376.919 15.1391 376.161 15.1391V15.1439Z" fill="white"/>
<path d="M120.298 14.243C125.821 14.243 129.932 10.8956 130.563 5.95505V5.94083C130.672 5.10161 129.994 4.3667 129.145 4.3667H113.612C112.911 4.3667 112.318 4.87877 112.199 5.571C112.176 5.69902 112.157 5.82704 112.143 5.9598C111.512 10.9003 114.769 14.2477 120.293 14.2477L120.298 14.243Z" fill="white"/>
</g>
<defs>
<clipPath id="clip0_15_6120">
<rect width="380.745" height="100" fill="white"/>
</clipPath>
</defs>
</svg>
